<svg width="81" height="83" viewBox="0 0 81 83" fill="none" xmlns="http://www.w3.org/2000/svg">
<path d="M58.3815 50.2188H22.6185C20.6839 50.2188 19.7076 47.8574 21.0817 46.4951L38.9632 28.6398C39.8129 27.7861 41.169 27.7861 42.0187 28.6398L59.9002 46.4951C61.2924 47.8574 60.3161 50.2188 58.3815 50.2188ZM81 9.53125V73.4688C81 78.2822 77.1127 82.1875 72.3214 82.1875H8.67857C3.88728 82.1875 0 78.2822 0 73.4688V9.53125C0 4.71777 3.88728 0.8125 8.67857 0.8125H72.3214C77.1127 0.8125 81 4.71777 81 9.53125ZM72.3214 72.3789V10.6211C72.3214 10.0217 71.8333 9.53125 71.2366 9.53125H9.76339C9.16674 9.53125 8.67857 10.0217 8.67857 10.6211V72.3789C8.67857 72.9783 9.16674 73.4688 9.76339 73.4688H71.2366C71.8333 73.4688 72.3214 72.9783 72.3214 72.3789Z" fill="#4225B6"/>
</svg>
