<svg width="48" height="48" viewBox="0 0 48 48" fill="none" xmlns="http://www.w3.org/2000/svg">
<g clip-path="url(#clip0)">
<path fill-rule="evenodd" clip-rule="evenodd" d="M39.9291 44.0671L44.1328 39.8645L45.3941 45.3284L39.9291 44.0671ZM25.6247 30.3332L24.0337 28.7422L19.2596 23.9681L17.6686 22.3771L7.81997 12.5284L12.593 7.75429L22.4416 17.6029L24.0337 19.1939L28.8067 23.9681L30.3977 25.5591L42.8264 37.9878L38.0534 42.7619L25.6247 30.3332ZM9.85316 42.9216L6.0827 44.5374L3.46329 41.918L5.08017 38.1453L17.6675 25.5591L22.4416 30.3332L9.85316 42.9216ZM3.0391 7.74754C2.60703 7.31434 2.60816 6.60098 3.04585 6.16216L6.22785 2.98017C6.67004 2.5391 7.37665 2.53797 7.81322 2.97342L11.002 6.16216L6.22785 10.9363L3.0391 7.74754ZM37.3941 5.83361L42.1682 10.6066L30.3977 22.3771L25.6247 17.6018L37.3941 5.83361ZM43.3631 2.25105C43.3665 2.2488 43.3575 2.2488 43.3665 2.25781L45.744 4.6353C45.7508 4.64205 45.7508 4.63755 45.7508 4.63868L42.5665 7.8218L40.18 5.4353L43.3631 2.25105ZM46.0096 37.9878L31.9899 23.9681L41.3423 14.6156L42.2188 15.4932C42.6588 15.9332 42.6588 16.6454 42.2166 17.0876L37.8014 21.5017C37.3626 21.9416 37.3626 22.6539 37.8014 23.0927C38.2413 23.5326 38.9536 23.5326 39.3924 23.0927L43.8076 18.6797C45.1285 17.3588 45.1297 15.221 43.811 13.9022L42.9333 13.0246L43.7592 12.1976L45.3502 10.6066L44.1575 9.41392L47.3418 6.22967C48.225 5.34416 48.216 3.92532 47.335 3.04318L44.9575 0.665682C44.0675 -0.224332 42.6498 -0.217581 41.7721 0.660056L38.5879 3.8443L37.3941 2.65049L35.8031 4.24149H35.802V4.24261L24.0337 16.0108L9.40422 1.38242C8.08664 0.0659635 5.95555 0.0704641 4.63685 1.38917L1.45485 4.57117C0.140647 5.88537 0.132771 8.02433 1.4481 9.33853L4.63685 12.5273L4.94065 12.8311L6.22785 14.1194L16.0765 23.9681L3.182 36.8626L0.795499 42.4322L2.3865 44.0232L0 46.4097L1.591 48.0007L3.9775 45.6142L5.56962 47.2052L11.1392 44.8187L24.0337 31.9242L36.4613 44.3529L38.0523 45.9439L46.2031 47.8252C47.4048 48.102 48.1699 47.3481 47.8897 46.1374L46.0096 37.9878Z" fill="white"/>
</g>
<defs>
<clipPath id="clip0">
<rect width="48" height="48" fill="white"/>
</clipPath>
</defs>
</svg>
