<svg width="89" height="87" viewBox="0 0 89 87" fill="none" xmlns="http://www.w3.org/2000/svg">
<path d="M44.5 0.101368C19.9137 0.101368 0 20.0262 0 44.6014C0 64.2667 12.7492 80.943 30.4269 86.8207C32.6519 87.2398 33.4677 85.864 33.4677 84.681C33.4677 83.6242 33.4306 80.8244 33.4121 77.116C21.0337 79.8009 18.423 71.1456 18.423 71.1456C16.3982 66.0096 13.4724 64.6375 13.4724 64.6375C9.44142 61.8785 13.7839 61.9341 13.7839 61.9341C18.2524 62.2456 20.5998 66.5176 20.5998 66.5176C24.5677 73.3224 31.0165 71.357 33.5604 70.2185C33.9609 67.3409 35.1068 65.3792 36.3788 64.2667C26.496 63.1542 16.109 59.3272 16.109 42.2762C16.109 37.4183 17.8334 33.4504 20.6888 30.3354C20.1882 29.2118 18.6863 24.6876 21.0782 18.5577C21.0782 18.5577 24.805 17.3637 33.3157 23.119C36.8757 22.1289 40.6582 21.6394 44.4407 21.6171C48.2232 21.6394 52.0057 22.1289 55.5657 23.119C64.0207 17.3637 67.7475 18.5577 67.7475 18.5577C70.1394 24.6876 68.6375 29.2118 68.1925 30.3354C71.0294 33.4504 72.7538 37.4183 72.7538 42.2762C72.7538 59.3717 62.3519 63.1356 52.4507 64.2296C54.0082 65.5646 55.4544 68.2939 55.4544 72.4621C55.4544 78.4177 55.3988 83.2014 55.3988 84.6477C55.3988 85.8158 56.1775 87.2064 58.4582 86.7614C76.2619 80.9245 89 64.237 89 44.6014C89 20.0262 69.0751 0.101368 44.5 0.101368" fill="#363958"/>
</svg>
