<svg width="89" height="89" viewBox="0 0 89 89" fill="none" xmlns="http://www.w3.org/2000/svg">
<path d="M44.5 0C32.4108 0 30.9015 0.055625 26.1549 0.267C21.4156 0.4895 18.1894 1.23487 15.3525 2.33625C12.4266 3.471 9.94204 4.99512 7.46858 7.46858C4.99512 9.94204 3.46729 12.4229 2.33625 15.3525C1.23487 18.1894 0.485792 21.4156 0.267 26.1549C0.0445 30.9015 0 32.4108 0 44.5C0 56.5892 0.055625 58.0985 0.267 62.8451C0.4895 67.5807 1.23487 70.8106 2.33625 73.6475C3.471 76.5697 4.99512 79.058 7.46858 81.5314C9.94204 84.0012 12.4229 85.5327 15.3525 86.6637C18.1931 87.7614 21.4193 88.5142 26.1549 88.733C30.9015 88.9555 32.4108 89 44.5 89C56.5892 89 58.0985 88.9444 62.8451 88.733C67.5807 88.5105 70.8106 87.7614 73.6475 86.6637C76.5697 85.529 79.058 84.0012 81.5314 81.5314C84.0012 79.058 85.5327 76.5808 86.6637 73.6475C87.7614 70.8106 88.5142 67.5807 88.733 62.8451C88.9555 58.0985 89 56.5892 89 44.5C89 32.4108 88.9444 30.9015 88.733 26.1549C88.5105 21.4193 87.7614 18.1857 86.6637 15.3525C85.529 12.4266 84.0012 9.94204 81.5314 7.46858C79.058 4.99512 76.5808 3.46729 73.6475 2.33625C70.8106 1.23487 67.5807 0.485792 62.8451 0.267C58.0985 0.0445 56.5892 0 44.5 0ZM44.5 8.01C56.3778 8.01 57.7944 8.06933 62.4854 8.27329C66.8242 8.47725 69.179 9.19667 70.7439 9.81225C72.828 10.617 74.3039 11.5811 75.8688 13.1349C77.4226 14.6924 78.3867 16.172 79.1915 18.2561C79.7996 19.821 80.5265 22.1758 80.723 26.5146C80.9344 31.2093 80.9826 32.6185 80.9826 44.5C80.9826 56.3815 80.927 57.7944 80.7082 62.4854C80.482 66.8242 79.7588 69.179 79.147 70.7439C78.3163 72.828 77.3707 74.3039 75.8132 75.8688C74.2594 77.4226 72.7575 78.3867 70.6957 79.1915C69.1382 79.7996 66.7463 80.5265 62.4075 80.723C57.6831 80.9344 56.2925 80.9826 44.3887 80.9826C32.4813 80.9826 31.0907 80.927 26.37 80.7082C22.0275 80.482 19.6356 79.7588 18.0781 79.147C15.9681 78.3163 14.5181 77.3707 12.9643 75.8132C11.4031 74.2594 10.4056 72.7575 9.62683 70.6957C9.01496 69.1382 8.29554 66.7463 8.06933 62.4075C7.90246 57.735 7.84312 56.2925 7.84312 44.4444C7.84312 32.5925 7.90246 31.1463 8.06933 26.4182C8.29554 22.0794 9.01496 19.6912 9.62683 18.1337C10.4056 16.02 11.4031 14.5737 12.9643 13.0125C14.5181 11.4587 15.9681 10.4575 18.0781 9.68246C19.6356 9.06688 21.9756 8.34375 26.3143 8.12125C31.0425 7.95438 32.4331 7.89875 44.3331 7.89875L44.5 8.01ZM44.5 21.6492C31.8731 21.6492 21.6492 31.8842 21.6492 44.5C21.6492 57.1269 31.8842 67.3508 44.5 67.3508C57.1269 67.3508 67.3508 57.1157 67.3508 44.5C67.3508 31.8731 57.1157 21.6492 44.5 21.6492ZM44.5 59.3333C36.3046 59.3333 29.6667 52.6954 29.6667 44.5C29.6667 36.3046 36.3046 29.6667 44.5 29.6667C52.6954 29.6667 59.3333 36.3046 59.3333 44.5C59.3333 52.6954 52.6954 59.3333 44.5 59.3333ZM73.5956 20.7481C73.5956 23.6962 71.2 26.0881 68.2556 26.0881C65.3075 26.0881 62.9156 23.6925 62.9156 20.7481C62.9156 17.8037 65.3112 15.4118 68.2556 15.4118C71.1963 15.4081 73.5956 17.8037 73.5956 20.7481Z" fill="#4225B6"/>
</svg>
